<mxfile host="Electron" modified="2024-05-09T20:00:01.874Z" agent="Mozilla/5.0 (Windows NT 10.0; Win64; x64) AppleWebKit/537.36 (KHTML, like Gecko) draw.io/24.2.5 Chrome/120.0.6099.109 Electron/28.1.0 Safari/537.36" etag="dSAPnsM3ineL5LPhdhIQ" version="24.2.5" type="device">
  <diagram id="mQcWTVZgrDa8HU8pCHet" name="Page-1">
    <mxGraphModel dx="1355" dy="972" grid="1" gridSize="10" guides="1" tooltips="1" connect="1" arrows="1" fold="1" page="0" pageScale="1" pageWidth="850" pageHeight="1100" math="0" shadow="0">
      <root>
        <mxCell id="0" />
        <mxCell id="1" parent="0" />
        <mxCell id="Ut-ClVMY-XZ_HCNam88B-52" value="send FF" style="ellipse;whiteSpace=wrap;html=1;" parent="1" vertex="1">
          <mxGeometry x="330" y="379" width="120" height="80" as="geometry" />
        </mxCell>
        <mxCell id="Ut-ClVMY-XZ_HCNam88B-3" style="edgeStyle=orthogonalEdgeStyle;rounded=0;orthogonalLoop=1;jettySize=auto;html=1;curved=1;exitX=0;exitY=1;exitDx=0;exitDy=0;" parent="1" source="Ut-ClVMY-XZ_HCNam88B-1" target="Ut-ClVMY-XZ_HCNam88B-2" edge="1">
          <mxGeometry relative="1" as="geometry" />
        </mxCell>
        <mxCell id="Ut-ClVMY-XZ_HCNam88B-5" value="receive incoming msg" style="edgeLabel;html=1;align=center;verticalAlign=middle;resizable=0;points=[];" parent="Ut-ClVMY-XZ_HCNam88B-3" vertex="1" connectable="0">
          <mxGeometry x="-0.119" y="16" relative="1" as="geometry">
            <mxPoint x="-10" y="16" as="offset" />
          </mxGeometry>
        </mxCell>
        <mxCell id="Ut-ClVMY-XZ_HCNam88B-6" style="edgeStyle=orthogonalEdgeStyle;curved=1;rounded=0;orthogonalLoop=1;jettySize=auto;html=1;exitX=1;exitY=1;exitDx=0;exitDy=0;entryX=0.5;entryY=0;entryDx=0;entryDy=0;" parent="1" source="Ut-ClVMY-XZ_HCNam88B-1" target="Ut-ClVMY-XZ_HCNam88B-4" edge="1">
          <mxGeometry relative="1" as="geometry" />
        </mxCell>
        <mxCell id="Ut-ClVMY-XZ_HCNam88B-7" value="receive outgoing data" style="edgeLabel;html=1;align=center;verticalAlign=middle;resizable=0;points=[];" parent="Ut-ClVMY-XZ_HCNam88B-6" vertex="1" connectable="0">
          <mxGeometry x="-0.1033" y="-20" relative="1" as="geometry">
            <mxPoint as="offset" />
          </mxGeometry>
        </mxCell>
        <mxCell id="Ut-ClVMY-XZ_HCNam88B-1" value="Idle" style="ellipse;whiteSpace=wrap;html=1;" parent="1" vertex="1">
          <mxGeometry x="290" y="120" width="120" height="80" as="geometry" />
        </mxCell>
        <mxCell id="Ut-ClVMY-XZ_HCNam88B-27" style="edgeStyle=orthogonalEdgeStyle;curved=1;rounded=0;orthogonalLoop=1;jettySize=auto;html=1;" parent="1" source="Ut-ClVMY-XZ_HCNam88B-2" target="Ut-ClVMY-XZ_HCNam88B-26" edge="1">
          <mxGeometry relative="1" as="geometry" />
        </mxCell>
        <mxCell id="Ut-ClVMY-XZ_HCNam88B-30" value="SF" style="edgeLabel;html=1;align=center;verticalAlign=middle;resizable=0;points=[];" parent="Ut-ClVMY-XZ_HCNam88B-27" vertex="1" connectable="0">
          <mxGeometry x="0.2345" y="2" relative="1" as="geometry">
            <mxPoint as="offset" />
          </mxGeometry>
        </mxCell>
        <mxCell id="Ut-ClVMY-XZ_HCNam88B-29" style="edgeStyle=orthogonalEdgeStyle;curved=1;rounded=0;orthogonalLoop=1;jettySize=auto;html=1;" parent="1" source="Ut-ClVMY-XZ_HCNam88B-2" target="Ut-ClVMY-XZ_HCNam88B-28" edge="1">
          <mxGeometry relative="1" as="geometry" />
        </mxCell>
        <mxCell id="Ut-ClVMY-XZ_HCNam88B-31" value="FF" style="edgeLabel;html=1;align=center;verticalAlign=middle;resizable=0;points=[];" parent="Ut-ClVMY-XZ_HCNam88B-29" vertex="1" connectable="0">
          <mxGeometry x="0.3172" relative="1" as="geometry">
            <mxPoint as="offset" />
          </mxGeometry>
        </mxCell>
        <mxCell id="Ut-ClVMY-XZ_HCNam88B-2" value="process msg" style="ellipse;whiteSpace=wrap;html=1;" parent="1" vertex="1">
          <mxGeometry x="50" y="260" width="120" height="80" as="geometry" />
        </mxCell>
        <mxCell id="Ut-ClVMY-XZ_HCNam88B-23" style="edgeStyle=orthogonalEdgeStyle;curved=1;rounded=0;orthogonalLoop=1;jettySize=auto;html=1;exitX=0.5;exitY=1;exitDx=0;exitDy=0;" parent="1" source="Ut-ClVMY-XZ_HCNam88B-4" target="Ut-ClVMY-XZ_HCNam88B-22" edge="1">
          <mxGeometry relative="1" as="geometry" />
        </mxCell>
        <mxCell id="ZC1Wkf5DOew07n5wPUUG-1" value="SF" style="edgeLabel;html=1;align=center;verticalAlign=middle;resizable=0;points=[];" vertex="1" connectable="0" parent="Ut-ClVMY-XZ_HCNam88B-23">
          <mxGeometry x="0.0714" y="-3" relative="1" as="geometry">
            <mxPoint as="offset" />
          </mxGeometry>
        </mxCell>
        <mxCell id="Ut-ClVMY-XZ_HCNam88B-53" style="edgeStyle=orthogonalEdgeStyle;curved=1;rounded=0;orthogonalLoop=1;jettySize=auto;html=1;" parent="1" source="Ut-ClVMY-XZ_HCNam88B-4" target="Ut-ClVMY-XZ_HCNam88B-52" edge="1">
          <mxGeometry relative="1" as="geometry" />
        </mxCell>
        <mxCell id="ZC1Wkf5DOew07n5wPUUG-2" value="MF" style="edgeLabel;html=1;align=center;verticalAlign=middle;resizable=0;points=[];" vertex="1" connectable="0" parent="Ut-ClVMY-XZ_HCNam88B-53">
          <mxGeometry x="-0.0125" y="-1" relative="1" as="geometry">
            <mxPoint x="1" as="offset" />
          </mxGeometry>
        </mxCell>
        <mxCell id="Ut-ClVMY-XZ_HCNam88B-4" value="process data" style="ellipse;whiteSpace=wrap;html=1;" parent="1" vertex="1">
          <mxGeometry x="440" y="260" width="120" height="80" as="geometry" />
        </mxCell>
        <mxCell id="Ut-ClVMY-XZ_HCNam88B-14" style="edgeStyle=orthogonalEdgeStyle;curved=1;rounded=0;orthogonalLoop=1;jettySize=auto;html=1;exitX=1;exitY=0.75;exitDx=0;exitDy=0;entryX=0;entryY=0.75;entryDx=0;entryDy=0;" parent="1" source="Ut-ClVMY-XZ_HCNam88B-8" target="Ut-ClVMY-XZ_HCNam88B-11" edge="1">
          <mxGeometry relative="1" as="geometry" />
        </mxCell>
        <mxCell id="Ut-ClVMY-XZ_HCNam88B-16" value="decoded data" style="edgeLabel;html=1;align=center;verticalAlign=middle;resizable=0;points=[];" parent="Ut-ClVMY-XZ_HCNam88B-14" vertex="1" connectable="0">
          <mxGeometry x="-0.2532" y="-1" relative="1" as="geometry">
            <mxPoint x="18" as="offset" />
          </mxGeometry>
        </mxCell>
        <mxCell id="Ut-ClVMY-XZ_HCNam88B-18" style="edgeStyle=orthogonalEdgeStyle;curved=1;rounded=0;orthogonalLoop=1;jettySize=auto;html=1;exitX=0;exitY=0.25;exitDx=0;exitDy=0;entryX=1;entryY=0.25;entryDx=0;entryDy=0;" parent="1" source="Ut-ClVMY-XZ_HCNam88B-8" target="Ut-ClVMY-XZ_HCNam88B-17" edge="1">
          <mxGeometry relative="1" as="geometry" />
        </mxCell>
        <mxCell id="Ut-ClVMY-XZ_HCNam88B-20" value="send msg" style="edgeLabel;html=1;align=center;verticalAlign=middle;resizable=0;points=[];" parent="Ut-ClVMY-XZ_HCNam88B-18" vertex="1" connectable="0">
          <mxGeometry x="0.2063" y="-1" relative="1" as="geometry">
            <mxPoint x="6" as="offset" />
          </mxGeometry>
        </mxCell>
        <mxCell id="Ut-ClVMY-XZ_HCNam88B-8" value="ISOTP" style="rounded=1;whiteSpace=wrap;html=1;" parent="1" vertex="1">
          <mxGeometry x="220" y="-200" width="120" height="80" as="geometry" />
        </mxCell>
        <mxCell id="Ut-ClVMY-XZ_HCNam88B-13" style="edgeStyle=orthogonalEdgeStyle;curved=1;rounded=0;orthogonalLoop=1;jettySize=auto;html=1;exitX=0;exitY=0.25;exitDx=0;exitDy=0;entryX=1;entryY=0.25;entryDx=0;entryDy=0;" parent="1" source="Ut-ClVMY-XZ_HCNam88B-11" target="Ut-ClVMY-XZ_HCNam88B-8" edge="1">
          <mxGeometry relative="1" as="geometry" />
        </mxCell>
        <mxCell id="Ut-ClVMY-XZ_HCNam88B-15" value="outgoing data" style="edgeLabel;html=1;align=center;verticalAlign=middle;resizable=0;points=[];" parent="Ut-ClVMY-XZ_HCNam88B-13" vertex="1" connectable="0">
          <mxGeometry x="0.3138" y="1" relative="1" as="geometry">
            <mxPoint x="22" as="offset" />
          </mxGeometry>
        </mxCell>
        <mxCell id="Ut-ClVMY-XZ_HCNam88B-11" value="UDS" style="rounded=1;whiteSpace=wrap;html=1;" parent="1" vertex="1">
          <mxGeometry x="480" y="-200" width="120" height="80" as="geometry" />
        </mxCell>
        <mxCell id="Ut-ClVMY-XZ_HCNam88B-19" style="edgeStyle=orthogonalEdgeStyle;curved=1;rounded=0;orthogonalLoop=1;jettySize=auto;html=1;exitX=1;exitY=0.75;exitDx=0;exitDy=0;entryX=0;entryY=0.75;entryDx=0;entryDy=0;" parent="1" source="Ut-ClVMY-XZ_HCNam88B-17" target="Ut-ClVMY-XZ_HCNam88B-8" edge="1">
          <mxGeometry relative="1" as="geometry" />
        </mxCell>
        <mxCell id="Ut-ClVMY-XZ_HCNam88B-21" value="receive msg" style="edgeLabel;html=1;align=center;verticalAlign=middle;resizable=0;points=[];" parent="Ut-ClVMY-XZ_HCNam88B-19" vertex="1" connectable="0">
          <mxGeometry x="-0.2313" relative="1" as="geometry">
            <mxPoint x="8" as="offset" />
          </mxGeometry>
        </mxCell>
        <mxCell id="Ut-ClVMY-XZ_HCNam88B-17" value="CAN API" style="rounded=1;whiteSpace=wrap;html=1;" parent="1" vertex="1">
          <mxGeometry x="-10" y="-200" width="120" height="80" as="geometry" />
        </mxCell>
        <mxCell id="ZC1Wkf5DOew07n5wPUUG-4" style="edgeStyle=orthogonalEdgeStyle;rounded=0;orthogonalLoop=1;jettySize=auto;html=1;curved=1;" edge="1" parent="1" source="Ut-ClVMY-XZ_HCNam88B-22" target="Ut-ClVMY-XZ_HCNam88B-1">
          <mxGeometry relative="1" as="geometry">
            <mxPoint x="780" y="200" as="targetPoint" />
            <Array as="points">
              <mxPoint x="670" y="160" />
            </Array>
          </mxGeometry>
        </mxCell>
        <mxCell id="Ut-ClVMY-XZ_HCNam88B-22" value="send SF" style="ellipse;whiteSpace=wrap;html=1;" parent="1" vertex="1">
          <mxGeometry x="550" y="380" width="120" height="80" as="geometry" />
        </mxCell>
        <mxCell id="Ut-ClVMY-XZ_HCNam88B-36" style="edgeStyle=orthogonalEdgeStyle;curved=1;rounded=0;orthogonalLoop=1;jettySize=auto;html=1;exitX=0;exitY=0.5;exitDx=0;exitDy=0;entryX=0.5;entryY=1;entryDx=0;entryDy=0;" parent="1" source="Ut-ClVMY-XZ_HCNam88B-26" target="Ut-ClVMY-XZ_HCNam88B-34" edge="1">
          <mxGeometry relative="1" as="geometry" />
        </mxCell>
        <mxCell id="Ut-ClVMY-XZ_HCNam88B-26" value="extract SF data" style="ellipse;whiteSpace=wrap;html=1;" parent="1" vertex="1">
          <mxGeometry x="-30" y="380" width="120" height="80" as="geometry" />
        </mxCell>
        <mxCell id="Ut-ClVMY-XZ_HCNam88B-38" style="edgeStyle=orthogonalEdgeStyle;curved=1;rounded=0;orthogonalLoop=1;jettySize=auto;html=1;" parent="1" source="Ut-ClVMY-XZ_HCNam88B-28" target="Ut-ClVMY-XZ_HCNam88B-32" edge="1">
          <mxGeometry relative="1" as="geometry" />
        </mxCell>
        <mxCell id="Ut-ClVMY-XZ_HCNam88B-28" value="extract FF data&amp;nbsp;" style="ellipse;whiteSpace=wrap;html=1;" parent="1" vertex="1">
          <mxGeometry x="130" y="380" width="120" height="80" as="geometry" />
        </mxCell>
        <mxCell id="Ut-ClVMY-XZ_HCNam88B-39" style="edgeStyle=orthogonalEdgeStyle;curved=1;rounded=0;orthogonalLoop=1;jettySize=auto;html=1;entryX=0.5;entryY=0;entryDx=0;entryDy=0;" parent="1" source="Ut-ClVMY-XZ_HCNam88B-32" target="Ut-ClVMY-XZ_HCNam88B-33" edge="1">
          <mxGeometry relative="1" as="geometry" />
        </mxCell>
        <mxCell id="Ut-ClVMY-XZ_HCNam88B-32" value="send FC" style="ellipse;whiteSpace=wrap;html=1;" parent="1" vertex="1">
          <mxGeometry x="130" y="490" width="120" height="80" as="geometry" />
        </mxCell>
        <mxCell id="Ut-ClVMY-XZ_HCNam88B-40" style="edgeStyle=orthogonalEdgeStyle;curved=1;rounded=0;orthogonalLoop=1;jettySize=auto;html=1;exitX=0;exitY=1;exitDx=0;exitDy=0;entryX=1;entryY=1;entryDx=0;entryDy=0;" parent="1" source="Ut-ClVMY-XZ_HCNam88B-33" target="Ut-ClVMY-XZ_HCNam88B-37" edge="1">
          <mxGeometry relative="1" as="geometry" />
        </mxCell>
        <mxCell id="Ut-ClVMY-XZ_HCNam88B-33" value="wait for more data" style="ellipse;whiteSpace=wrap;html=1;" parent="1" vertex="1">
          <mxGeometry x="130" y="600" width="120" height="80" as="geometry" />
        </mxCell>
        <mxCell id="Ut-ClVMY-XZ_HCNam88B-35" style="edgeStyle=orthogonalEdgeStyle;curved=1;rounded=0;orthogonalLoop=1;jettySize=auto;html=1;exitX=0.5;exitY=0;exitDx=0;exitDy=0;entryX=0;entryY=0.5;entryDx=0;entryDy=0;" parent="1" source="Ut-ClVMY-XZ_HCNam88B-34" target="Ut-ClVMY-XZ_HCNam88B-1" edge="1">
          <mxGeometry relative="1" as="geometry">
            <Array as="points">
              <mxPoint x="-100" y="160" />
            </Array>
          </mxGeometry>
        </mxCell>
        <mxCell id="Ut-ClVMY-XZ_HCNam88B-34" value="output data" style="ellipse;whiteSpace=wrap;html=1;" parent="1" vertex="1">
          <mxGeometry x="-160" y="240" width="120" height="80" as="geometry" />
        </mxCell>
        <mxCell id="Ut-ClVMY-XZ_HCNam88B-41" style="edgeStyle=orthogonalEdgeStyle;curved=1;rounded=0;orthogonalLoop=1;jettySize=auto;html=1;exitX=1;exitY=0;exitDx=0;exitDy=0;entryX=0;entryY=0;entryDx=0;entryDy=0;" parent="1" source="Ut-ClVMY-XZ_HCNam88B-37" target="Ut-ClVMY-XZ_HCNam88B-33" edge="1">
          <mxGeometry relative="1" as="geometry" />
        </mxCell>
        <mxCell id="Ut-ClVMY-XZ_HCNam88B-42" style="edgeStyle=orthogonalEdgeStyle;curved=1;rounded=0;orthogonalLoop=1;jettySize=auto;html=1;entryX=0.5;entryY=1;entryDx=0;entryDy=0;exitX=0;exitY=0.5;exitDx=0;exitDy=0;" parent="1" source="Ut-ClVMY-XZ_HCNam88B-37" target="Ut-ClVMY-XZ_HCNam88B-34" edge="1">
          <mxGeometry relative="1" as="geometry" />
        </mxCell>
        <mxCell id="Ut-ClVMY-XZ_HCNam88B-37" value="extract CF data" style="ellipse;whiteSpace=wrap;html=1;" parent="1" vertex="1">
          <mxGeometry x="-40" y="600" width="120" height="80" as="geometry" />
        </mxCell>
        <mxCell id="Ut-ClVMY-XZ_HCNam88B-55" style="edgeStyle=orthogonalEdgeStyle;curved=1;rounded=0;orthogonalLoop=1;jettySize=auto;html=1;" parent="1" source="Ut-ClVMY-XZ_HCNam88B-52" target="Ut-ClVMY-XZ_HCNam88B-54" edge="1">
          <mxGeometry relative="1" as="geometry" />
        </mxCell>
        <mxCell id="Ut-ClVMY-XZ_HCNam88B-61" style="edgeStyle=orthogonalEdgeStyle;curved=1;rounded=0;orthogonalLoop=1;jettySize=auto;html=1;" parent="1" source="Ut-ClVMY-XZ_HCNam88B-54" target="Ut-ClVMY-XZ_HCNam88B-59" edge="1">
          <mxGeometry relative="1" as="geometry" />
        </mxCell>
        <mxCell id="Ut-ClVMY-XZ_HCNam88B-54" value="wait for FC" style="ellipse;whiteSpace=wrap;html=1;" parent="1" vertex="1">
          <mxGeometry x="330" y="499" width="120" height="80" as="geometry" />
        </mxCell>
        <mxCell id="Ut-ClVMY-XZ_HCNam88B-63" style="edgeStyle=orthogonalEdgeStyle;curved=1;rounded=0;orthogonalLoop=1;jettySize=auto;html=1;exitX=0;exitY=0;exitDx=0;exitDy=0;entryX=0;entryY=1;entryDx=0;entryDy=0;" parent="1" source="Ut-ClVMY-XZ_HCNam88B-56" target="Ut-ClVMY-XZ_HCNam88B-59" edge="1">
          <mxGeometry relative="1" as="geometry" />
        </mxCell>
        <mxCell id="ZC1Wkf5DOew07n5wPUUG-3" style="edgeStyle=orthogonalEdgeStyle;rounded=0;orthogonalLoop=1;jettySize=auto;html=1;entryX=1;entryY=0.5;entryDx=0;entryDy=0;curved=1;exitX=1;exitY=0.5;exitDx=0;exitDy=0;" edge="1" parent="1" source="Ut-ClVMY-XZ_HCNam88B-59" target="Ut-ClVMY-XZ_HCNam88B-1">
          <mxGeometry relative="1" as="geometry">
            <Array as="points">
              <mxPoint x="690" y="659" />
              <mxPoint x="690" y="160" />
            </Array>
          </mxGeometry>
        </mxCell>
        <mxCell id="Ut-ClVMY-XZ_HCNam88B-56" value="wait some time" style="ellipse;whiteSpace=wrap;html=1;" parent="1" vertex="1">
          <mxGeometry x="330" y="729" width="120" height="80" as="geometry" />
        </mxCell>
        <mxCell id="Ut-ClVMY-XZ_HCNam88B-62" style="edgeStyle=orthogonalEdgeStyle;curved=1;rounded=0;orthogonalLoop=1;jettySize=auto;html=1;exitX=1;exitY=1;exitDx=0;exitDy=0;entryX=1;entryY=0;entryDx=0;entryDy=0;" parent="1" source="Ut-ClVMY-XZ_HCNam88B-59" target="Ut-ClVMY-XZ_HCNam88B-56" edge="1">
          <mxGeometry relative="1" as="geometry" />
        </mxCell>
        <mxCell id="Ut-ClVMY-XZ_HCNam88B-59" value="send CF" style="ellipse;whiteSpace=wrap;html=1;" parent="1" vertex="1">
          <mxGeometry x="330" y="619" width="120" height="80" as="geometry" />
        </mxCell>
      </root>
    </mxGraphModel>
  </diagram>
</mxfile>
